<?xml version="1.0" standalone="no"?>
<!DOCTYPE svg PUBLIC "-//W3C//DTD SVG 20010904//EN" "http://www.w3.org/TR/2001/REC-SVG-20010904/DTD/svg10.dtd">
<!-- Created using Krita: http://krita.org -->
<svg xmlns="http://www.w3.org/2000/svg" 
    xmlns:xlink="http://www.w3.org/1999/xlink"
    xmlns:krita="http://krita.org/namespaces/svg/krita"
    xmlns:sodipodi="http://sodipodi.sourceforge.net/DTD/sodipodi-0.dtd"
    width="1045.44pt"
    height="864pt"
    viewBox="0 0 1045.44 864">
<defs/>
<path id="shape0" transform="matrix(1.62119053092193 0 0 1.49634761278181 761.462558801524 183.595816697935)" fill="none" stroke="#12516e" stroke-width="28.8" stroke-linecap="square" stroke-linejoin="bevel" d="M82.7894 317.095C93.8061 294.675 77.0011 330.095 73.9071 334.417C55.5355 353.225 30.3419 365.766 5.51291 321.907C-0.779074 305.128 2.24221 321.012 0.541068 293.915C-6.0489 188.947 49.7671 -6.28472 48.0611 0.155455"/><path id="shape1" transform="matrix(1.62119053092193 0 0 1.49634761278181 642.427380629087 502.460145282227)" fill="none" stroke="#12516e" stroke-width="28.8" stroke-linecap="square" stroke-linejoin="bevel" d="M134.896 3.9161C141.147 -15.2381 129.62 40.327 81.6022 74.1672C21.8535 116.274 -15.2865 128.474 6.10209 118.435"/><path id="shape2" transform="matrix(1.62119053092193 0 0 1.49634761278181 130.137648488796 89.9829296490907)" fill="none" stroke="#12516e" stroke-width="28.8" stroke-linecap="square" stroke-linejoin="bevel" d="M491.307 143.401C515.326 111.685 394.111 271.892 317.435 323.118C239.258 375.192 83.376 428.384 24.3169 320.953C0.165792 277.021 -0.910807 216.557 0.334557 167.94C2.25792 92.8552 29.5713 -18.6459 24.9831 2.65785"/>
</svg>
